<?xml version="1.0" encoding="utf-8"?>
<!-- Generator: Adobe Illustrator 25.2.1, SVG Export Plug-In . SVG Version: 6.00 Build 0)  -->
<svg version="1.1" id="Layer_1" xmlns="http://www.w3.org/2000/svg" xmlns:xlink="http://www.w3.org/1999/xlink" x="0px" y="0px"
	 viewBox="0 0 253.2 95.8" style="enable-background:new 0 0 253.2 95.8;" xml:space="preserve">
<g>
	<g>
		<path d="M76.8,0v28.1h28.1V0H76.8z M96.4,19.8c-0.5,0.7-1.2,1.2-2,1.6c-0.9,0.4-2,0.5-3.2,0.5h-6.3V6.1h5.9c1.8,0,3.1,0.4,4.1,1
			c1,0.7,1.4,1.7,1.4,3c0,0.8-0.2,1.4-0.5,2c-0.3,0.5-0.9,1-1.5,1.3c0.9,0.3,1.6,0.8,2.1,1.5c0.5,0.7,0.7,1.5,0.7,2.4
			C97.1,18.3,96.8,19.1,96.4,19.8z M92.3,12.1c0.4-0.4,0.6-0.9,0.6-1.5c0-1.2-0.9-1.9-2.5-1.9H88v3.9h2.4
			C91.3,12.6,91.9,12.4,92.3,12.1z M90.8,15.1H88v4.3h2.8c1,0,1.7-0.2,2.2-0.5c0.5-0.4,0.8-0.9,0.8-1.6
			C93.8,15.8,92.8,15.1,90.8,15.1z"/>
		<path d="M111.9,0v28.1h28.1V0H111.9z M131.4,19.8c-0.5,0.7-1.2,1.2-2,1.6c-0.9,0.4-2,0.5-3.2,0.5h-6.3V6.1h5.9
			c1.8,0,3.1,0.4,4.1,1c1,0.7,1.4,1.7,1.4,3c0,0.8-0.2,1.4-0.5,2c-0.3,0.5-0.9,1-1.5,1.3c0.9,0.3,1.6,0.8,2.1,1.5
			c0.5,0.7,0.7,1.5,0.7,2.4C132.2,18.3,131.9,19.1,131.4,19.8z M127.4,12.1c0.4-0.4,0.6-0.9,0.6-1.5c0-1.2-0.9-1.9-2.5-1.9h-2.4v3.9
			h2.4C126.4,12.6,127,12.4,127.4,12.1z M125.9,15.1h-2.8v4.3h2.8c1,0,1.7-0.2,2.2-0.5c0.5-0.4,0.8-0.9,0.8-1.6
			C128.9,15.8,127.9,15.1,125.9,15.1z"/>
		<path d="M146.9,28.1H175V0h-28.1V28.1z M167.1,20.9c-0.6,0.4-1.4,0.6-2.3,0.9c-0.9,0.2-1.8,0.3-2.7,0.3c-1.3,0-2.4-0.2-3.4-0.5
			s-1.9-0.9-2.6-1.6s-1.2-1.5-1.6-2.5S154,15.3,154,14c0-1.2,0.2-2.3,0.6-3.3c0.4-1,0.9-1.8,1.7-2.5c0.7-0.7,1.6-1.2,2.6-1.6
			c1-0.4,2.2-0.6,3.4-0.6c0.9,0,1.7,0.1,2.5,0.3s1.5,0.4,2.2,0.8v3.1c-0.6-0.4-1.3-0.7-2-0.9c-0.7-0.2-1.5-0.3-2.2-0.3
			c-1.1,0-2,0.2-2.8,0.6c-0.8,0.4-1.4,1-1.8,1.8s-0.6,1.7-0.6,2.8c0,1.1,0.2,2,0.6,2.8c0.4,0.8,1,1.4,1.7,1.8
			c0.8,0.4,1.7,0.6,2.7,0.6c1.6,0,3.1-0.4,4.5-1.3L167.1,20.9L167.1,20.9z"/>
	</g>
	<g>
		<g>
			<path d="M21.1,63.2V38.6h9c3.2,0,5.7,0.7,7.4,2s2.6,3.3,2.6,5.8c0,1.6-0.4,3-1.1,4.2c-0.8,1.1-1.9,2-3.3,2.6
				c1,1.6,2.1,3.3,3.1,4.9c1,1.6,2,3.3,3,5h-6.1c-1.6-3-3.4-6-5.1-8.9c-0.2,0-0.4,0-0.5,0h-3.7v8.9L21.1,63.2L21.1,63.2z M26.3,50.1
				h3.4c1.6,0,2.9-0.3,3.7-0.9c0.9-0.6,1.3-1.5,1.3-2.8c0-1.3-0.4-2.2-1.2-2.8c-0.8-0.6-2.1-0.9-3.7-0.9h-3.5L26.3,50.1L26.3,50.1z"
				/>
			<path d="M43.8,38.6h16.9V43H49.1v5.3h10.3v4.4H49.1v6h12.3v4.4H43.8V38.6z"/>
			<path d="M71.6,63.7c-1.4,0-2.7-0.1-4-0.5c-1.3-0.3-2.6-0.8-3.8-1.4v-4.7c2.4,1.5,5.1,2.2,7.8,2.2c1.6,0,2.7-0.3,3.6-0.8
				c0.8-0.5,1.2-1.3,1.2-2.2c0-0.7-0.2-1.3-0.6-1.7c-0.4-0.4-0.9-0.7-1.6-1c-0.7-0.2-1.4-0.5-2.2-0.7c-1.4-0.3-2.5-0.7-3.6-1.1
				s-1.9-0.9-2.6-1.5s-1.2-1.2-1.6-2c-0.4-0.8-0.6-1.7-0.6-2.8c0-1.6,0.4-2.9,1.2-4s1.9-2,3.4-2.6c1.4-0.6,3.2-0.9,5.1-0.9
				c1.3,0,2.6,0.1,3.9,0.4s2.4,0.7,3.4,1.2v4.7c-1-0.6-2.1-1.1-3.4-1.4s-2.6-0.5-3.8-0.5c-1.4,0-2.5,0.2-3.2,0.7s-1.1,1.2-1.1,2.1
				c0,0.6,0.2,1.1,0.6,1.5c0.4,0.4,0.9,0.7,1.6,0.9c0.7,0.2,1.5,0.5,2.4,0.7c1.2,0.3,2.3,0.6,3.3,1c1,0.4,1.9,0.8,2.7,1.4
				s1.4,1.2,1.8,2.1c0.4,0.9,0.6,1.9,0.6,3.1c0,1.6-0.4,3-1.2,4.2c-0.8,1.2-2,2-3.5,2.6C75.5,63.4,73.7,63.7,71.6,63.7z"/>
			<path d="M85.1,38.6h16.9V43H90.3v5.3h10.3v4.4H90.3v6h12.3v4.4H85.1V38.6z"/>
			<path d="M119.4,38.6c1.7,4.1,3.4,8.2,5,12.3s3.2,8.2,4.7,12.3h-5.8c-0.6-1.8-1.2-3.6-1.8-5.3h-10c-0.6,1.8-1.2,3.5-1.8,5.3H104
				c1.6-4.3,3.1-8.5,4.8-12.6c1.6-4.1,3.2-8.1,4.9-12H119.4z M113,53.4h6.9c-0.5-1.6-1.1-3.2-1.7-4.8s-1.2-3.1-1.7-4.7
				C115.2,47.1,114.1,50.2,113,53.4z"/>
			<path d="M131.1,63.2V38.6h9c3.2,0,5.7,0.7,7.4,2s2.6,3.3,2.6,5.8c0,1.6-0.4,3-1.1,4.2s-1.9,2-3.3,2.6c1,1.6,2,3.3,3.1,4.9
				s2,3.3,3,5h-6.1c-1.6-3-3.4-6-5.1-8.9c-0.2,0-0.4,0-0.5,0h-3.7v8.9L131.1,63.2L131.1,63.2z M136.3,50.1h3.4
				c1.6,0,2.9-0.3,3.7-0.9c0.9-0.6,1.3-1.5,1.3-2.8c0-1.3-0.4-2.2-1.2-2.8c-0.8-0.6-2.1-0.9-3.7-0.9h-3.5L136.3,50.1L136.3,50.1z"/>
			<path d="M165.1,63.7c-2,0-3.7-0.3-5.3-0.9c-1.6-0.6-2.9-1.4-4-2.5c-1.1-1.1-1.9-2.4-2.5-4c-0.6-1.6-0.9-3.4-0.9-5.4
				c0-2,0.3-3.7,0.9-5.3c0.6-1.6,1.5-2.9,2.6-4s2.5-2,4-2.6s3.3-0.9,5.3-0.9c1.4,0,2.6,0.1,3.8,0.4s2.3,0.7,3.4,1.2v4.9
				c-0.9-0.6-1.9-1.1-3-1.5c-1.1-0.3-2.3-0.5-3.5-0.5c-1.7,0-3.1,0.3-4.3,1c-1.2,0.6-2.1,1.6-2.7,2.8s-1,2.7-1,4.4s0.3,3.2,0.9,4.5
				c0.6,1.2,1.5,2.2,2.7,2.8c1.2,0.6,2.6,1,4.2,1c2.5,0,4.8-0.7,7-2v4.8c-1,0.6-2.2,1-3.5,1.4C167.9,63.5,166.6,63.7,165.1,63.7z"/>
			<path d="M176.1,38.6h5.3V48h10.7v-9.4h5.3v24.6h-5.3V52.6h-10.7v10.5h-5.3V38.6z"/>
			<path d="M216.9,63.6c-1.8,0-3.4-0.3-4.8-0.8c-1.4-0.5-2.4-1.3-3.1-2.4s-1.1-2.3-1.1-3.7c0-1.4,0.4-2.5,1.2-3.6c0.8-1,2-2,3.7-3
				c-0.6-0.7-1-1.4-1.4-2s-0.6-1.2-0.8-1.8s-0.2-1.2-0.2-1.9c0-1.2,0.3-2.3,0.9-3.2c0.6-0.9,1.4-1.6,2.5-2.2
				c1.1-0.5,2.3-0.8,3.7-0.8c1.4,0,2.5,0.2,3.6,0.7s1.8,1.2,2.4,2.1s0.8,1.9,0.8,3c0,1.4-0.4,2.6-1.3,3.6c-0.9,1.1-2.2,2.1-4.1,3.1
				c0.7,0.8,1.5,1.6,2.4,2.5c0.9,0.9,1.8,1.8,2.8,2.8c0.8-1.4,1.2-3.3,1.3-5.5h4.5c0,1.7-0.3,3.2-0.8,4.7s-1.1,2.7-1.9,3.8
				c0.7,0.7,1.4,1.4,2.1,2c0.7,0.7,1.5,1.4,2.3,2.2h-6.2c-0.5-0.5-1-0.9-1.4-1.4c-1,0.6-2,1-3.2,1.4
				C219.6,63.4,218.3,63.6,216.9,63.6z M213,56.2c0,1,0.4,1.9,1.2,2.5s1.9,0.9,3.2,0.9c1.4,0,2.5-0.2,3.6-0.8
				c-1.3-1.3-2.4-2.4-3.4-3.4s-1.8-1.9-2.5-2.7c-0.8,0.5-1.4,1-1.7,1.5C213.2,54.8,213,55.5,213,56.2z M214.9,44.4
				c0,0.4,0,0.8,0.1,1.1c0.1,0.4,0.3,0.7,0.5,1.2s0.6,0.9,1.1,1.5c1.1-0.5,2-1.1,2.5-1.7s0.8-1.3,0.8-2.1c0-0.8-0.2-1.4-0.7-1.9
				c-0.5-0.5-1-0.7-1.8-0.7c-0.8,0-1.4,0.2-1.9,0.7C215.1,43,214.9,43.6,214.9,44.4z"/>
		</g>
	</g>
	<g>
		<g>
			<path d="M0,70.2h9.4c2.6,0,4.8,0.5,6.7,1.4s3.2,2.4,4.2,4.2s1.4,4,1.4,6.6s-0.5,4.8-1.5,6.6c-1,1.8-2.4,3.2-4.2,4.2
				c-1.8,1-4.1,1.5-6.7,1.5H0V70.2z M9.1,90.2c2.3,0,4.1-0.7,5.3-2s1.8-3.3,1.8-5.8c0-2.5-0.6-4.4-1.8-5.7s-3-2-5.3-2H5.3v15.5
				L9.1,90.2L9.1,90.2z"/>
			<path d="M25,70.2h16.9v4.4H30.3v5.3h10.3v4.4H30.3v6h12.3v4.4H25L25,70.2L25,70.2z"/>
			<path d="M49.4,70.2c1.1,3.2,2.1,6.4,3.2,9.6c1.1,3.2,2.2,6.4,3.3,9.5c1.1-3.2,2.2-6.4,3.3-9.5s2.1-6.4,3.2-9.6h5.7
				c-1.5,4.1-3,8.2-4.6,12.3c-1.6,4.1-3.2,8.2-4.8,12.3H53c-1.6-4.1-3.2-8.2-4.8-12.3c-1.6-4.1-3.1-8.2-4.6-12.3H49.4z"/>
			<path d="M70.2,70.2h16.9v4.4H75.5v5.3h10.3v4.4H75.5v6h12.3v4.4H70.2L70.2,70.2L70.2,70.2z"/>
			<path d="M91,70.2h5.3v20h11.6v4.6H91L91,70.2L91,70.2z"/>
			<path d="M121,69.6c1.9,0,3.5,0.3,5,0.9c1.5,0.6,2.8,1.5,3.9,2.6c1.1,1.1,1.9,2.5,2.5,4c0.6,1.6,0.9,3.3,0.9,5.3
				c0,2-0.3,3.7-0.9,5.3s-1.4,2.9-2.5,4c-1.1,1.1-2.4,2-3.9,2.6c-1.5,0.6-3.2,0.9-5,0.9c-1.9,0-3.5-0.3-5-0.9
				c-1.5-0.6-2.8-1.5-3.9-2.6c-1.1-1.1-1.9-2.5-2.5-4c-0.6-1.6-0.9-3.3-0.9-5.3c0-2,0.3-3.7,0.9-5.3c0.6-1.6,1.4-2.9,2.5-4
				c1.1-1.1,2.4-2,3.9-2.6S119.1,69.6,121,69.6z M121,90.6c1.4,0,2.6-0.3,3.6-1c1-0.6,1.8-1.6,2.3-2.8c0.5-1.2,0.8-2.7,0.8-4.4
				c0-1.7-0.3-3.2-0.8-4.4s-1.3-2.1-2.3-2.8c-1-0.6-2.2-1-3.6-1c-1.4,0-2.6,0.3-3.6,1c-1,0.6-1.8,1.6-2.3,2.8s-0.8,2.7-0.8,4.4
				c0,1.7,0.3,3.2,0.8,4.4c0.5,1.2,1.3,2.2,2.3,2.8C118.4,90.3,119.6,90.6,121,90.6z"/>
			<path d="M136.5,94.7V70.2h8.8c3.2,0,5.6,0.7,7.3,2.1s2.5,3.4,2.5,6c0,1.7-0.4,3.2-1.1,4.4s-1.9,2.1-3.4,2.8s-3.2,0.9-5.4,0.9
				h-3.6v8.4L136.5,94.7L136.5,94.7z M141.7,82.2h3.3c1.6,0,2.7-0.3,3.6-1c0.8-0.6,1.2-1.6,1.2-3c0-1.4-0.4-2.4-1.2-3
				c-0.8-0.6-2-1-3.5-1h-3.3L141.7,82.2L141.7,82.2z"/>
			<path d="M157.7,94.7V70.2h6.4c1.1,2.5,2.2,5,3.3,7.5s2.3,5,3.4,7.4c1.1-2.5,2.3-4.9,3.4-7.4c1.1-2.5,2.2-5,3.3-7.6h6.2v24.6h-5
				V78c-0.9,2.1-1.9,4.1-2.9,6.1s-2,4-2.9,6.1h-4.2c-1-2-2-4-3-6.1c-1-2-1.9-4-2.9-6.1v16.7L157.7,94.7L157.7,94.7z"/>
			<path d="M188.2,70.2h16.9v4.4h-11.6v5.3h10.3v4.4h-10.3v6h12.3v4.4h-17.5L188.2,70.2L188.2,70.2z"/>
			<path d="M208.9,94.7V70.2h5.4c1.9,2.8,3.7,5.5,5.5,8.3c1.8,2.8,3.6,5.6,5.4,8.5V70.2h5.1v24.6h-5.4c-1.8-2.9-3.6-5.7-5.4-8.6
				c-1.8-2.9-3.6-5.7-5.4-8.4v17L208.9,94.7L208.9,94.7z"/>
			<path d="M232.4,70.2h20.8v4.6h-7.7v20h-5.3v-20h-7.7L232.4,70.2L232.4,70.2z"/>
		</g>
	</g>
</g>
</svg>
