<svg xmlns="http://www.w3.org/2000/svg" viewBox="0 0 168.76 96.88"><defs><style>.cls-1{fill:#1d1d1b;}</style></defs><title>rd-logo-black-stack</title><g id="Layer_2" data-name="Layer 2"><g id="Layer_1-2" data-name="Layer 1"><g id="g3259"><path id="path3261" d="M53.2,17.93c0,3-3.75,2.84-3.75,2.84H45.7V15.32h3.75c3.87,0,3.75,2.61,3.75,2.61M45.7,7h2.86c3,.16,2.86,2.37,2.86,2.37,0,2.74-3.28,2.79-3.28,2.79H45.7Zm6.81,6.23a4.43,4.43,0,0,0,2.55-4s.39-4.75-5.91-5.33h-7V23.85h8s6.7,0,6.7-5.63c0,0,.15-3.84-4.36-5M34.41,0H63.85V27.74H34.41Z"/></g><g id="g3263"><path id="path3265" d="M19.25,17.93c0,3-3.75,2.84-3.75,2.84H11.75V15.32H15.5c3.86,0,3.75,2.61,3.75,2.61M11.75,7h2.86c3,.16,2.86,2.37,2.86,2.37,0,2.74-3.29,2.79-3.29,2.79H11.75Zm6.81,6.23a4.43,4.43,0,0,0,2.55-4s.39-4.75-5.92-5.33h-7V23.85h8s6.7,0,6.7-5.63c0,0,.15-3.84-4.36-5M.46,0H29.9V27.74H.46Z"/></g><g id="g3267"><path id="path3269" d="M91.8,5.34V9a16.79,16.79,0,0,0-7.57-2.25s-7.41-.15-7.75,7.1c0,0-.27,6.67,7.66,7.05,0,0,3.33.4,7.84-2.48v3.82a15.88,15.88,0,0,1-13.06.83,10.11,10.11,0,0,1-6.12-9.22A10.14,10.14,0,0,1,80.41,4.2a14,14,0,0,1,5.87-.45A21.09,21.09,0,0,1,91.8,5.34M68.36,27.74H97.81V0H68.36Z"/></g><path class="cls-1" d="M2.74,54.48v8.07H0v-20H6.47a9.51,9.51,0,0,1,5.84,1.55,5.28,5.28,0,0,1,2,4.44,5.41,5.41,0,0,1-1.1,3.42,6.18,6.18,0,0,1-3.1,2q2.79,4.17,5.4,8.57H12.32q-1.17-2.07-2.39-4.08c-.82-1.33-1.66-2.67-2.54-4l-.95,0Zm0-2.24h3.5a6.92,6.92,0,0,0,4-.92,3.19,3.19,0,0,0,1.32-2.8q0-3.75-5.27-3.75H2.74Z"/><path class="cls-1" d="M28.93,61.65a9.51,9.51,0,0,1-5,1.26A7.54,7.54,0,0,1,20.15,62a6.14,6.14,0,0,1-2.48-2.59,8.46,8.46,0,0,1-.87-3.95,9.4,9.4,0,0,1,.81-4,6.21,6.21,0,0,1,2.31-2.66,6.51,6.51,0,0,1,3.55-.94,5.46,5.46,0,0,1,4.45,1.82,7.78,7.78,0,0,1,1.51,5.12v1.12h-10a5.33,5.33,0,0,0,1.41,3.6,4.67,4.67,0,0,0,3.46,1.28,8.51,8.51,0,0,0,2.41-.34,8.9,8.9,0,0,0,2.24-1.06ZM23.44,49.89A3.54,3.54,0,0,0,20.79,51a5.22,5.22,0,0,0-1.33,3h7.42a5.15,5.15,0,0,0-1-3A3,3,0,0,0,23.44,49.89Z"/><path class="cls-1" d="M36.67,62.91a10.21,10.21,0,0,1-2.5-.29A8.88,8.88,0,0,1,32,61.76V59.41a7.24,7.24,0,0,0,2.11,1.07,8.31,8.31,0,0,0,2.48.36A4.38,4.38,0,0,0,39,60.28a1.82,1.82,0,0,0,.84-1.62,1.85,1.85,0,0,0-.26-1,1.89,1.89,0,0,0-.89-.65,11.84,11.84,0,0,0-1.88-.59,12.69,12.69,0,0,1-2.91-1A3.66,3.66,0,0,1,32.42,54a4.22,4.22,0,0,1,.22-4.18,4.21,4.21,0,0,1,1.93-1.47,7.69,7.69,0,0,1,3-.52,8.14,8.14,0,0,1,4.37,1.09v2.33a6.14,6.14,0,0,0-1.9-1,7.63,7.63,0,0,0-2.3-.35,4.36,4.36,0,0,0-2.32.52,1.67,1.67,0,0,0-.84,1.5,1.73,1.73,0,0,0,.25,1,2,2,0,0,0,.91.65q.66.26,1.89.6a12.79,12.79,0,0,1,2.85,1A3.8,3.8,0,0,1,42,56.54a3.71,3.71,0,0,1,.48,2,4,4,0,0,1-.71,2.36,4.47,4.47,0,0,1-2,1.53A8.09,8.09,0,0,1,36.67,62.91Z"/><path class="cls-1" d="M56.86,61.65a9.5,9.5,0,0,1-5,1.26A7.51,7.51,0,0,1,48.09,62a6.08,6.08,0,0,1-2.48-2.59,8.46,8.46,0,0,1-.87-3.95,9.4,9.4,0,0,1,.81-4,6.08,6.08,0,0,1,2.31-2.66,6.5,6.5,0,0,1,3.54-.94,5.49,5.49,0,0,1,4.46,1.82,7.83,7.83,0,0,1,1.51,5.12v1.12h-10a5.38,5.38,0,0,0,1.42,3.6,4.67,4.67,0,0,0,3.46,1.28,8.38,8.38,0,0,0,2.4-.34,8.59,8.59,0,0,0,2.24-1.06ZM51.38,49.89A3.54,3.54,0,0,0,48.73,51a5.22,5.22,0,0,0-1.33,3h7.42a5.15,5.15,0,0,0-1-3A3,3,0,0,0,51.38,49.89Z"/><path class="cls-1" d="M71.37,62.83c-1.51,0-2.36-.64-2.54-1.91a6.21,6.21,0,0,1-2.08,1.5,6,6,0,0,1-2.46.49,5,5,0,0,1-3.44-1.09,3.84,3.84,0,0,1-1.24-3,3.78,3.78,0,0,1,1.66-3.31,8.37,8.37,0,0,1,4.78-1.14c.4,0,.83,0,1.29,0l1.35.14V53.14a3,3,0,0,0-.89-2.35A3.59,3.59,0,0,0,65.27,50a7.74,7.74,0,0,0-2.38.35,8.6,8.6,0,0,0-2.24,1.1V49.08A9.39,9.39,0,0,1,63,48.13a10.21,10.21,0,0,1,2.51-.31,6.89,6.89,0,0,1,3.07.63,4.49,4.49,0,0,1,1.94,1.79A5.49,5.49,0,0,1,71.23,53v6.72a1.3,1.3,0,0,0,.21.82.86.86,0,0,0,.72.27,2.39,2.39,0,0,0,1-.22v1.82a2.51,2.51,0,0,1-.79.29A4.46,4.46,0,0,1,71.37,62.83ZM62.22,58.6c0,1.48.88,2.21,2.66,2.21A4.82,4.82,0,0,0,68.69,59V56.33l-1.21-.14c-.43,0-.85,0-1.26,0a6.06,6.06,0,0,0-3,.58A2,2,0,0,0,62.22,58.6Z"/><path class="cls-1" d="M82,50.28a4.58,4.58,0,0,0-3.81,2.1V62.55H75.51V48.18h2.21L78,50.37a4.79,4.79,0,0,1,4.09-2.44,4.26,4.26,0,0,1,1.9.37v2.52a2.44,2.44,0,0,0-.91-.41A4.81,4.81,0,0,0,82,50.28Z"/><path class="cls-1" d="M92.69,62.91A8,8,0,0,1,88.81,62a6.08,6.08,0,0,1-2.48-2.59,8.84,8.84,0,0,1-.86-4.08,8.35,8.35,0,0,1,.89-4,6.39,6.39,0,0,1,2.54-2.61,7.8,7.8,0,0,1,3.87-.92,8.78,8.78,0,0,1,2.17.24,6.9,6.9,0,0,1,1.81.74v2.41A5.6,5.6,0,0,0,95,50.28a7.08,7.08,0,0,0-2.06-.3,4.77,4.77,0,0,0-2.54.64,4.15,4.15,0,0,0-1.63,1.83,7.81,7.81,0,0,0,0,5.81,4.15,4.15,0,0,0,1.6,1.85,4.68,4.68,0,0,0,2.52.65A6.93,6.93,0,0,0,97,59.47v2.35a6.75,6.75,0,0,1-2,.81A9.13,9.13,0,0,1,92.69,62.91Z"/><path class="cls-1" d="M106.46,50a4.87,4.87,0,0,0-2.14.49,5.11,5.11,0,0,0-1.75,1.45V62.55H99.94V41.69h2.63v8.12a6.3,6.3,0,0,1,2-1.49,5.93,5.93,0,0,1,2.45-.5,5.56,5.56,0,0,1,2.73.64,4.31,4.31,0,0,1,1.75,1.88,6.58,6.58,0,0,1,.62,3v9.24h-2.64V53.48a3.82,3.82,0,0,0-.78-2.58A2.81,2.81,0,0,0,106.46,50Z"/><path class="cls-1" d="M136.5,62.55c-.52-.52-1-1-1.51-1.49a9,9,0,0,1-2.73,1.38,11.42,11.42,0,0,1-3.34.47,9.11,9.11,0,0,1-3.6-.66,5.31,5.31,0,0,1-2.42-1.89,5,5,0,0,1-.87-2.94,4.75,4.75,0,0,1,1.06-3.06,10.06,10.06,0,0,1,3.19-2.45A14.9,14.9,0,0,1,125,50.23a6.49,6.49,0,0,1-.74-1.56,5.08,5.08,0,0,1-.26-1.61,4.7,4.7,0,0,1,.68-2.54,4.53,4.53,0,0,1,1.86-1.71,6,6,0,0,1,2.78-.62,5.65,5.65,0,0,1,2.66.59,4.3,4.3,0,0,1,1.74,1.61,4.5,4.5,0,0,1,.62,2.37,4.65,4.65,0,0,1-1.11,3,10.86,10.86,0,0,1-3.49,2.59l2.4,2.47c.87.89,1.81,1.86,2.84,2.88a10.31,10.31,0,0,0,1.32-5.29h2.49a14.54,14.54,0,0,1-.6,3.88,9.81,9.81,0,0,1-1.56,3.06l1.57,1.54,1.68,1.63Zm-11.76-5.32A3.09,3.09,0,0,0,126,59.82a5.32,5.32,0,0,0,3.33.94,6.75,6.75,0,0,0,4.17-1.26L131,57l-1.9-2c-.56-.59-1.07-1.15-1.54-1.67a6.86,6.86,0,0,0-1.76,1.16,3.46,3.46,0,0,0-.86,1.26A4.11,4.11,0,0,0,124.74,57.23Zm1.74-10.36a4.34,4.34,0,0,0,.2,1.38,5.13,5.13,0,0,0,.61,1.28A11.05,11.05,0,0,0,128.44,51a11,11,0,0,0,2-1.19,3.87,3.87,0,0,0,1.12-1.31,3.47,3.47,0,0,0,.35-1.56,2.67,2.67,0,0,0-.7-1.94,2.57,2.57,0,0,0-1.93-.72,3.19,3.19,0,0,0-1.5.33,2.44,2.44,0,0,0-1,.93A2.66,2.66,0,0,0,126.48,46.87Z"/><path class="cls-1" d="M0,70.53H7a11.4,11.4,0,0,1,5.31,1.16,8,8,0,0,1,3.41,3.37,11.24,11.24,0,0,1,1.19,5.41,11.42,11.42,0,0,1-1.19,5.44,8.11,8.11,0,0,1-3.41,3.45,11.23,11.23,0,0,1-5.34,1.19H0ZM6.75,88.2a7.13,7.13,0,0,0,5.36-2A8,8,0,0,0,14,80.47a7.84,7.84,0,0,0-1.86-5.67,7.13,7.13,0,0,0-5.36-1.92h-4V88.2Z"/><path class="cls-1" d="M31.65,89.65a9.5,9.5,0,0,1-5,1.26,7.58,7.58,0,0,1-3.8-.91,6.06,6.06,0,0,1-2.47-2.59,8.46,8.46,0,0,1-.87-4,9.4,9.4,0,0,1,.81-4,6.08,6.08,0,0,1,2.31-2.66,6.5,6.5,0,0,1,3.54-.94,5.45,5.45,0,0,1,4.45,1.82,7.78,7.78,0,0,1,1.52,5.12v1.12h-10a5.34,5.34,0,0,0,1.42,3.6A4.65,4.65,0,0,0,27,88.76a8.51,8.51,0,0,0,2.41-.34,8.74,8.74,0,0,0,2.24-1.06ZM26.16,77.89A3.53,3.53,0,0,0,23.52,79a5.16,5.16,0,0,0-1.33,3h7.42a5.22,5.22,0,0,0-1-3A3,3,0,0,0,26.16,77.89Z"/><path class="cls-1" d="M47.3,76.18Q46,80,44.53,83.52c-1,2.37-1.93,4.71-2.91,7H38.93C38,88.31,37,86,36,83.58s-1.88-4.88-2.76-7.4H36.1q1,3.06,2.06,6t2.17,5.86c.74-1.94,1.48-3.9,2.2-5.87s1.4-4,2-6Z"/><path class="cls-1" d="M60.44,89.65a9.5,9.5,0,0,1-5,1.26,7.58,7.58,0,0,1-3.8-.91,6.14,6.14,0,0,1-2.48-2.59,8.58,8.58,0,0,1-.86-4,9.4,9.4,0,0,1,.81-4,6.08,6.08,0,0,1,2.31-2.66A6.5,6.5,0,0,1,55,75.82a5.46,5.46,0,0,1,4.45,1.82,7.78,7.78,0,0,1,1.51,5.12v1.12h-10a5.33,5.33,0,0,0,1.41,3.6,4.69,4.69,0,0,0,3.46,1.28,8.51,8.51,0,0,0,2.41-.34,8.74,8.74,0,0,0,2.24-1.06ZM55,77.89A3.53,3.53,0,0,0,52.31,79a5.16,5.16,0,0,0-1.33,3H58.4a5.22,5.22,0,0,0-1-3A3,3,0,0,0,55,77.89Z"/><path class="cls-1" d="M67.39,90.8A3.13,3.13,0,0,1,65,90a3.8,3.8,0,0,1-.78-2.62V69.69h2.63V87.22a1.72,1.72,0,0,0,.3,1.13,1.22,1.22,0,0,0,1,.35,2.45,2.45,0,0,0,.69-.1,5.51,5.51,0,0,0,.74-.26v2A4.67,4.67,0,0,1,67.39,90.8Z"/><path class="cls-1" d="M78,75.82a7.07,7.07,0,0,1,3.67.92,6.36,6.36,0,0,1,2.39,2.61,8.64,8.64,0,0,1,.85,4,9.36,9.36,0,0,1-.49,3.14,6.68,6.68,0,0,1-1.4,2.39,5.91,5.91,0,0,1-2.18,1.53,7.87,7.87,0,0,1-5.68,0A6,6,0,0,1,73,88.85a7,7,0,0,1-1.4-2.39,9.62,9.62,0,0,1-.49-3.14,8.64,8.64,0,0,1,.86-4,6.29,6.29,0,0,1,2.39-2.61A7.07,7.07,0,0,1,78,75.82Zm0,12.94a3.79,3.79,0,0,0,2.25-.66,4.12,4.12,0,0,0,1.44-1.88,7.48,7.48,0,0,0,.51-2.9,7.26,7.26,0,0,0-.51-2.85,4,4,0,0,0-1.45-1.85,4.24,4.24,0,0,0-4.48,0,4.07,4.07,0,0,0-1.46,1.85,7.45,7.45,0,0,0-.5,2.85,7.68,7.68,0,0,0,.5,2.9,4.26,4.26,0,0,0,1.44,1.88A3.84,3.84,0,0,0,78,88.76Z"/><path class="cls-1" d="M94.33,90.91A7.27,7.27,0,0,1,90.85,90v6.84H88.22V76.18h2.21l.2,1.74a5.73,5.73,0,0,1,4.51-2.1,6,6,0,0,1,3.29.88,5.78,5.78,0,0,1,2.13,2.51,9.29,9.29,0,0,1,.74,3.86,10.11,10.11,0,0,1-.49,3.21,7.12,7.12,0,0,1-1.42,2.48,6.27,6.27,0,0,1-2.19,1.59A7,7,0,0,1,94.33,90.91ZM94.58,78a4.62,4.62,0,0,0-2,.43,5.3,5.3,0,0,0-1.74,1.36v8.15a6.93,6.93,0,0,0,1.54.64,6.2,6.2,0,0,0,1.6.2,4.48,4.48,0,0,0,2.48-.66A4.22,4.22,0,0,0,98,86.19a7.36,7.36,0,0,0,.54-3,6.44,6.44,0,0,0-1-3.91A3.49,3.49,0,0,0,94.58,78Z"/><path class="cls-1" d="M110.81,78a4.21,4.21,0,0,0-2,.49,5.29,5.29,0,0,0-1.63,1.42V90.55h-2.64V76.18h2.22L107,78a5.45,5.45,0,0,1,4.4-2.18,4.86,4.86,0,0,1,2.59.66,4.32,4.32,0,0,1,1.66,1.89,6.6,6.6,0,0,1,2.1-1.91,5.54,5.54,0,0,1,2.64-.64,5,5,0,0,1,2.59.64,4.16,4.16,0,0,1,1.65,1.88,7,7,0,0,1,.57,3v9.24h-2.63V81.48a4.11,4.11,0,0,0-.71-2.58,2.46,2.46,0,0,0-2-.9,4.17,4.17,0,0,0-2,.52A5.36,5.36,0,0,0,116.1,80a8.91,8.91,0,0,1,.09,1.29v9.24h-2.64V81.48a4.11,4.11,0,0,0-.71-2.58A2.44,2.44,0,0,0,110.81,78Z"/><path class="cls-1" d="M140.46,89.65a9.5,9.5,0,0,1-5,1.26,7.58,7.58,0,0,1-3.8-.91,6.06,6.06,0,0,1-2.47-2.59,8.46,8.46,0,0,1-.87-4,9.4,9.4,0,0,1,.81-4,6.08,6.08,0,0,1,2.31-2.66,6.5,6.5,0,0,1,3.54-.94,5.45,5.45,0,0,1,4.45,1.82A7.78,7.78,0,0,1,141,82.76v1.12h-10a5.33,5.33,0,0,0,1.41,3.6,4.69,4.69,0,0,0,3.46,1.28,8.51,8.51,0,0,0,2.41-.34,8.74,8.74,0,0,0,2.24-1.06ZM135,77.89A3.53,3.53,0,0,0,132.33,79a5.16,5.16,0,0,0-1.33,3h7.42a5.22,5.22,0,0,0-1-3A3,3,0,0,0,135,77.89Z"/><path class="cls-1" d="M150.83,78a4.91,4.91,0,0,0-2.15.49,5.21,5.21,0,0,0-1.75,1.45V90.55H144.3V76.18h2.21l.2,1.85a6,6,0,0,1,4.68-2.21,5.56,5.56,0,0,1,2.73.64,4.37,4.37,0,0,1,1.75,1.88,6.58,6.58,0,0,1,.61,3v9.24h-2.63V81.48a3.82,3.82,0,0,0-.78-2.58A2.82,2.82,0,0,0,150.83,78Z"/><path class="cls-1" d="M168.76,90.21a5.59,5.59,0,0,1-1.43.53,6.75,6.75,0,0,1-1.57.17,4.33,4.33,0,0,1-3.23-1.13,4.52,4.52,0,0,1-1.11-3.29V78.26h-2.8V76.18h2.8V72.24l2.63-.62v4.56h4.35v2.08h-4.35V86.4a2.45,2.45,0,0,0,.57,1.77,2.29,2.29,0,0,0,1.73.59,5.51,5.51,0,0,0,2.41-.68Z"/></g></g></svg>